<?xml version="1.0" standalone="no"?>
<!DOCTYPE svg PUBLIC "-//W3C//DTD SVG 20010904//EN"
 "http://www.w3.org/TR/2001/REC-SVG-20010904/DTD/svg10.dtd">
<svg version="1.0" xmlns="http://www.w3.org/2000/svg"
 width="2640.000000pt" height="1402.000000pt" viewBox="0 0 2640.000000 1402.000000"
 preserveAspectRatio="xMidYMid meet">

<g transform="translate(0.000000,1402.000000) scale(0.100000,-0.100000)"
fill="#FF680F" stroke="none">
<path d="M10085 13496 c-123 -31 -211 -92 -278 -193 -90 -137 -134 -291 -157
-553 -14 -166 -14 -11382 1 -11486 33 -240 152 -476 329 -655 134 -136 263
-211 420 -245 97 -20 1335 -20 1443 0 324 62 630 395 733 796 19 73 19 191 19
5865 0 5563 -1 5794 -18 5895 -48 276 -151 456 -305 534 -112 57 -92 56 -1157
55 -750 -1 -992 -4 -1030 -13z"/>
<path d="M13955 13498 c-90 -17 -186 -71 -253 -143 -95 -101 -151 -234 -189
-445 -17 -101 -18 -310 -18 -5900 l0 -5795 27 -86 c98 -313 310 -576 563 -700
44 -21 107 -47 140 -56 57 -17 250 -18 3498 -21 3807 -2 3510 -8 3655 63 126
63 243 190 300 329 64 155 62 125 62 973 l0 772 -24 76 c-57 181 -186 296
-397 358 l-74 21 -2342 3 -2343 3 -3 4908 c-3 4375 -5 4917 -19 5002 -34 208
-72 322 -145 432 -49 75 -102 123 -180 162 -114 57 -89 56 -1193 55 -592 -1
-1036 -5 -1065 -11z"/>
<path d="M19785 13499 c-462 -67 -755 -346 -924 -879 -52 -164 -80 -305 -131
-645 -95 -635 -425 -2270 -940 -4660 -299 -1387 -507 -2365 -524 -2455 -28
-155 -37 -244 -37 -362 0 -204 41 -319 152 -431 110 -110 258 -167 489 -187
73 -6 935 -10 2342 -10 l2228 0 5 -23 c3 -12 44 -258 90 -547 154 -947 272
-1633 335 -1935 98 -471 133 -604 187 -708 67 -127 160 -202 296 -239 63 -18
123 -21 487 -29 228 -4 570 -13 760 -18 798 -24 880 -24 953 -7 110 26 183 69
272 160 248 254 332 693 245 1281 -100 680 -566 3211 -1281 6965 -640 3358
-744 3875 -825 4100 -137 382 -371 566 -794 625 -96 13 -318 15 -1718 14 -884
-1 -1634 -5 -1667 -10z m1822 -2877 c101 -53 157 -194 202 -512 28 -199 55
-481 96 -1035 45 -599 70 -889 150 -1735 85 -904 88 -957 82 -1134 -7 -219
-31 -271 -137 -304 -49 -15 -112 -17 -575 -17 -463 0 -526 2 -575 17 -105 33
-130 86 -137 299 -7 172 -2 234 82 1129 84 891 96 1032 150 1735 77 1007 111
1263 191 1432 60 126 118 155 304 150 106 -2 131 -6 167 -25z"/>
<path d="M1338 13480 c-115 -24 -176 -45 -273 -91 -359 -174 -596 -563 -667
-1094 -20 -149 -19 -10852 0 -11000 26 -194 61 -313 130 -450 37 -72 64 -108
137 -181 173 -173 368 -244 730 -264 212 -12 3525 -12 3820 0 337 14 568 48
835 125 452 130 949 418 1430 830 178 152 320 286 388 365 505 590 867 1843
991 3425 36 452 46 807 46 1600 -1 875 -20 1416 -76 2160 -63 841 -123 1235
-263 1735 -287 1026 -816 1816 -1534 2293 -477 318 -998 493 -1642 552 -129
12 -479 15 -2060 14 -1809 0 -1909 -1 -1992 -19z m3022 -2415 c88 -27 190 -75
253 -117 432 -293 754 -963 826 -1718 34 -348 52 -992 53 -1830 1 -1350 -58
-2372 -173 -2970 -124 -651 -363 -1119 -684 -1340 -64 -44 -199 -107 -275
-127 -90 -25 -401 -25 -511 -1 -206 46 -299 136 -346 336 -17 74 -18 240 -18
3712 0 3429 1 3639 17 3703 57 220 183 330 419 366 99 15 373 7 439 -14z"/>
</g>
</svg>
