<svg version="1.1" id="Layer_1" xmlns="http://www.w3.org/2000/svg" xmlns:xlink="http://www.w3.org/1999/xlink" x="0px" y="0px"
	 width="100%" viewBox="0 0 985 985" enable-background="new 0 0 985 985" xml:space="preserve">
<path fill="#0E2A47" opacity="1.000000" stroke="none" 
	d="
M551.000000,986.000000 
	C367.333344,986.000000 184.166672,986.000000 1.000000,986.000000 
	C1.000000,657.666687 1.000000,329.333344 1.000000,1.000000 
	C329.333344,1.000000 657.666687,1.000000 986.000000,1.000000 
	C986.000000,329.333344 986.000000,657.666687 986.000000,986.000000 
	C841.166687,986.000000 696.333313,986.000000 551.000000,986.000000 
M135.117157,39.510689 
	C135.117157,179.588318 135.117157,319.665955 135.117157,460.000763 
	C136.902527,460.000763 138.051147,460.000824 139.199783,460.000793 
	C180.694809,459.999634 222.189880,460.024719 263.684875,459.986511 
	C285.237091,459.966705 306.591370,457.920044 327.590698,452.950195 
	C393.370697,437.382324 438.578705,398.619476 461.001892,334.287567 
	C469.454407,310.037384 473.194427,284.940674 474.433228,259.383789 
	C476.047668,226.077652 473.992523,193.096634 464.824951,160.899063 
	C452.204956,116.576309 427.668518,80.922318 387.471893,57.091465 
	C353.544708,36.977512 316.181671,28.386629 277.353119,27.313620 
	C230.891907,26.029684 184.376251,26.714289 137.884125,26.563168 
	C137.097839,26.560612 136.310867,26.771311 135.117157,26.940031 
	C135.117157,30.914778 135.117157,34.715641 135.117157,39.510689 
M773.500000,962.000854 
	C785.273621,962.000854 797.047180,962.000854 809.345154,962.000854 
	C764.035950,817.190247 718.901978,672.939514 673.760864,528.666199 
	C634.455078,528.666199 595.479431,528.666199 555.992676,528.666199 
	C510.871979,672.877869 465.712860,817.212280 420.496033,961.731323 
	C454.159729,961.731323 487.076202,961.731323 520.071716,961.731323 
	C520.426758,960.563721 520.749451,959.626648 520.997070,958.670166 
	C529.243896,926.812073 537.547363,894.968262 545.626892,863.067688 
	C546.445435,859.835754 547.621277,858.892944 550.888184,858.901611 
	C592.543152,859.012512 634.198608,858.973511 675.853882,858.981934 
	C676.839417,858.982117 677.824890,859.088623 679.068359,859.160461 
	C687.922913,893.426086 696.766235,927.648438 705.643188,962.000854 
	C728.207153,962.000854 750.353577,962.000854 773.500000,962.000854 
M135.117523,570.500000 
	C135.117523,700.923523 135.117523,831.347107 135.117523,961.750488 
	C225.222870,961.750488 314.665558,961.750488 404.025818,961.750488 
	C404.025818,934.281311 404.025818,907.063904 404.025818,879.457886 
	C346.860901,879.457886 290.088165,879.457886 232.847534,879.457886 
	C232.847534,762.310303 232.847534,645.554871 232.847534,528.828491 
	C200.106812,528.828491 167.837326,528.828491 135.117523,528.828491 
	C135.117523,542.572754 135.117523,556.036377 135.117523,570.500000 
M661.833862,296.500061 
	C661.833862,206.706406 661.833862,116.912766 661.833862,26.871140 
	C629.001221,26.871140 596.645447,26.871140 564.356995,26.871140 
	C564.356995,171.424896 564.356995,315.649292 564.356995,459.701599 
	C596.973145,459.701599 629.233276,459.701599 661.833862,459.701599 
	C661.833862,405.435425 661.833862,351.467773 661.833862,296.500061 
z"/>
<path fill="#FEFEFF" opacity="1.000000" stroke="none" 
	d="
M135.117157,39.013596 
	C135.117157,34.715641 135.117157,30.914778 135.117157,26.940031 
	C136.310867,26.771311 137.097839,26.560612 137.884125,26.563168 
	C184.376251,26.714289 230.891907,26.029684 277.353119,27.313620 
	C316.181671,28.386629 353.544708,36.977512 387.471893,57.091465 
	C427.668518,80.922318 452.204956,116.576309 464.824951,160.899063 
	C473.992523,193.096634 476.047668,226.077652 474.433228,259.383789 
	C473.194427,284.940674 469.454407,310.037384 461.001892,334.287567 
	C438.578705,398.619476 393.370697,437.382324 327.590698,452.950195 
	C306.591370,457.920044 285.237091,459.966705 263.684875,459.986511 
	C222.189880,460.024719 180.694809,459.999634 139.199783,460.000793 
	C138.051147,460.000824 136.902527,460.000763 135.117157,460.000763 
	C135.117157,319.665955 135.117157,179.588318 135.117157,39.013596 
M354.787476,331.226593 
	C356.178986,328.578308 357.642151,325.964844 358.950409,323.276031 
	C367.736359,305.218384 372.016449,285.973663 373.452789,266.085358 
	C375.598419,236.376221 375.217041,206.810074 366.015259,178.066040 
	C356.248352,147.556656 337.999939,124.743103 306.842346,113.885353 
	C282.978180,105.569199 258.272736,105.244759 233.262497,105.874863 
	C233.262497,197.616394 233.262497,289.126007 233.262497,382.098663 
	C250.702911,380.696045 267.894287,380.367584 284.723236,377.728271 
	C314.598846,373.042786 338.644348,358.490051 354.787476,331.226593 
z"/>
<path fill="#FEFEFE" opacity="1.000000" stroke="none" 
	d="
M773.000000,962.000854 
	C750.353577,962.000854 728.207153,962.000854 705.643188,962.000854 
	C696.766235,927.648438 687.922913,893.426086 679.068359,859.160461 
	C677.824890,859.088623 676.839417,858.982117 675.853882,858.981934 
	C634.198608,858.973511 592.543152,859.012512 550.888184,858.901611 
	C547.621277,858.892944 546.445435,859.835754 545.626892,863.067688 
	C537.547363,894.968262 529.243896,926.812073 520.997070,958.670166 
	C520.749451,959.626648 520.426758,960.563721 520.071716,961.731323 
	C487.076202,961.731323 454.159729,961.731323 420.496033,961.731323 
	C465.712860,817.212280 510.871979,672.877869 555.992676,528.666199 
	C595.479431,528.666199 634.455078,528.666199 673.760864,528.666199 
	C718.901978,672.939514 764.035950,817.190247 809.345154,962.000854 
	C797.047180,962.000854 785.273621,962.000854 773.000000,962.000854 
M593.074524,681.568848 
	C584.410461,715.101196 575.746460,748.633484 567.081116,782.170898 
	C597.882751,782.170898 628.272522,782.170898 658.803711,782.170898 
	C658.707458,781.363403 658.702942,780.877991 658.587402,780.420593 
	C646.914551,734.172974 635.223083,687.930115 623.559204,641.680176 
	C620.551636,629.754456 617.662842,617.798706 614.609497,605.884949 
	C614.337219,604.822815 613.249634,603.969727 612.540710,603.019531 
	C611.878540,603.989746 611.117615,604.909668 610.588257,605.947571 
	C610.221558,606.666504 610.171631,607.547729 609.984375,608.357361 
	C604.402954,632.489136 598.822205,656.620911 593.074524,681.568848 
z"/>
<path fill="#FFFFFF" opacity="1.000000" stroke="none" 
	d="
M135.117523,570.000000 
	C135.117523,556.036377 135.117523,542.572754 135.117523,528.828491 
	C167.837326,528.828491 200.106812,528.828491 232.847534,528.828491 
	C232.847534,645.554871 232.847534,762.310303 232.847534,879.457886 
	C290.088165,879.457886 346.860901,879.457886 404.025818,879.457886 
	C404.025818,907.063904 404.025818,934.281311 404.025818,961.750488 
	C314.665558,961.750488 225.222870,961.750488 135.117523,961.750488 
	C135.117523,831.347107 135.117523,700.923523 135.117523,570.000000 
z"/>
<path fill="#FEFEFF" opacity="1.000000" stroke="none" 
	d="
M661.833862,297.000092 
	C661.833862,351.467773 661.833862,405.435425 661.833862,459.701599 
	C629.233276,459.701599 596.973145,459.701599 564.356995,459.701599 
	C564.356995,315.649292 564.356995,171.424896 564.356995,26.871140 
	C596.645447,26.871140 629.001221,26.871140 661.833862,26.871140 
	C661.833862,116.912766 661.833862,206.706406 661.833862,297.000092 
z"/>
<path fill="#0E2A47" opacity="1.000000" stroke="none" 
	d="
M354.577393,331.526642 
	C338.644348,358.490051 314.598846,373.042786 284.723236,377.728271 
	C267.894287,380.367584 250.702911,380.696045 233.262497,382.098663 
	C233.262497,289.126007 233.262497,197.616394 233.262497,105.874863 
	C258.272736,105.244759 282.978180,105.569199 306.842346,113.885353 
	C337.999939,124.743103 356.248352,147.556656 366.015259,178.066040 
	C375.217041,206.810074 375.598419,236.376221 373.452789,266.085358 
	C372.016449,285.973663 367.736359,305.218384 358.950409,323.276031 
	C357.642151,325.964844 356.178986,328.578308 354.577393,331.526642 
z"/>
<path fill="#0F2B48" opacity="1.000000" stroke="none" 
	d="
M593.157898,681.160767 
	C598.822205,656.620911 604.402954,632.489136 609.984375,608.357361 
	C610.171631,607.547729 610.221558,606.666504 610.588257,605.947571 
	C611.117615,604.909668 611.878540,603.989746 612.540710,603.019531 
	C613.249634,603.969727 614.337219,604.822815 614.609497,605.884949 
	C617.662842,617.798706 620.551636,629.754456 623.559204,641.680176 
	C635.223083,687.930115 646.914551,734.172974 658.587402,780.420593 
	C658.702942,780.877991 658.707458,781.363403 658.803711,782.170898 
	C628.272522,782.170898 597.882751,782.170898 567.081116,782.170898 
	C575.746460,748.633484 584.410461,715.101196 593.157898,681.160767 
z"/>
</svg>